400 0 1 0        
7 Unknown 13 ACIS 5.0.1 NT 24 Tue Jan  7 20:56:34 2020
1 9.9999999999999995e-007 1e-010 
-0 body $-1 $2 $-1 $1 #                                                                                            
-1 transform $-1 1 0 0 0 1 0 0 0 1 0 0 0 1 0 0 0 #
-2 lump $-1 $-1 $3 $0 #
-3 shell $-1 $-1 $-1 $4 $-1 $2 #
-4 face $-1 $15 $6 $3 $-1 $5 forward single #
-5 spline-surface $-1 forward { exactsur nubs 1 1 open open none none 2 2
        87.486139865630065 1 135 1 
        0 1 2 1 
        6.9999999999903144 9.313211313255434e-12 -29.999999999999996 
        6.9999999999903144 9.313211313255434e-12 0.0087537690757528708 
        6.9999999999903144 -0.79999999999068683 -29.999999999999996 
        6.9999999999903144 -0.79999999999068683 0.0087537690757528708 
        0
        0
        0
        0
        0
        0
        0
        F 87.486139865630065 F 135 F 0 F 2 } F 87.486139865630065 F 135 F 0 F 2 #
-6 loop $-1 $-1 $7 $4 #
-7 coedge $-1 $9 $13 $68 $82 forward $6 $8 #
-8 pcurve $-1 0 forward { exppc nubs 1 open 2
        -2 1 -0 1 
        87.486139865630065 2 
        87.486139865630065 0 
        0
        spline 0 { ref 0 } F 87.486139865630065 F 135 F 0 F 2 
        } 0 0 #
-9 coedge $-1 $11 $7 $44 $90 forward $6 $10 #
-10 pcurve $-1 0 forward { exppc nubs 1 open 2
        87.486139865630065 1 135 1 
        87.486139865630065 0 
        135 0 
        0
        spline 0 { ref 0 } F 87.486139865630065 F 135 F 0 F 2 
        } 0 0 #
-11 coedge $-1 $13 $9 $24 $70 forward $6 $12 #
-12 pcurve $-1 0 forward { exppc nubs 1 open 2
        0 1 2 1 
        135 0 
        135 2 
        0
        spline 0 { ref 0 } F 87.486139865630065 F 135 F 0 F 2 
        } 0 0 #
-13 coedge $-1 $7 $11 $53 $92 reversed $6 $14 #
-14 pcurve $-1 0 forward { exppc nubs 1 open 2
        -135 1 -87.486139865630065 1 
        135 2 
        87.486139865630065 2 
        0
        spline 0 { ref 0 } F 87.486139865630065 F 135 F 0 F 2 
        } 0 0 #
-15 face $-1 $26 $17 $3 $-1 $16 forward single #
-16 spline-surface $-1 forward { exactsur nubs 1 1 open open none none 2 2
        135 1 175 1 
        0 1 2 1 
        6.9999999999903144 9.313211313255434e-12 0.0087537690757528708 
        -7.0000000000096856 9.313211313255434e-12 0.0087537690757528708 
        6.9999999999903144 -0.79999999999068683 0.0087537690757528708 
        -7.0000000000096856 -0.79999999999068683 0.0087537690757528708 
        0
        0
        0
        0
        0
        0
        0
        F 135 F 175 F 0 F 2 } F 135 F 175 F 0 F 2 #
-17 loop $-1 $-1 $18 $15 #
-18 coedge $-1 $20 $24 $42 $72 forward $17 $19 #
-19 pcurve $-1 0 forward { exppc nubs 1 open 2
        135 1 175 1 
        135 0 
        175 0 
        0
        spline 0 { ref 5 } F 135 F 175 F 0 F 2 
        } 0 0 #
-20 coedge $-1 $22 $18 $33 $74 forward $17 $21 #
-21 pcurve $-1 0 forward { exppc nubs 1 open 2
        0 1 2 1 
        175 0 
        175 2 
        0
        spline 0 { ref 5 } F 135 F 175 F 0 F 2 
        } 0 0 #
-22 coedge $-1 $24 $20 $55 $76 reversed $17 $23 #
-23 pcurve $-1 0 forward { exppc nubs 1 open 2
        -175 1 -135 1 
        175 2 
        135 2 
        0
        spline 0 { ref 5 } F 135 F 175 F 0 F 2 
        } 0 0 #
-24 coedge $-1 $18 $22 $11 $70 reversed $17 $25 #
-25 pcurve $-1 0 forward { exppc nubs 1 open 2
        -2 1 0 1 
        135 2 
        135 0 
        0
        spline 0 { ref 5 } F 135 F 175 F 0 F 2 
        } 0 0 #
-26 face $-1 $37 $28 $3 $-1 $27 forward single #
-27 spline-surface $-1 forward { exactsur nubs 1 1 open open none none 2 2
        175 1 222.51386013436996 1 
        0 1 2 1 
        -7.0000000000096856 9.313211313255434e-12 0.0087537690757528708 
        -7.0000000000096856 9.313211313255434e-12 -30.000000000000014 
        -7.0000000000096856 -0.79999999999068683 0.0087537690757528708 
        -7.0000000000096856 -0.79999999999068683 -30.000000000000014 
        0
        0
        0
        0
        0
        0
        0
        F 175 F 222.51386013436996 F 0 F 2 } F 175 F 222.51386013436996 F 0 F 2 #
-28 loop $-1 $-1 $29 $26 #
-29 coedge $-1 $31 $35 $64 $84 forward $28 $30 #
-30 pcurve $-1 0 forward { exppc nubs 1 open 2
        -46.000000000009315 1 -45.200000000009311 1 
        222.51386013436996 0 
        222.51386013436996 2 
        0
        spline 0 { ref 10 } F 175 F 222.51386013436996 F 0 F 2 
        } 0 0 #
-31 coedge $-1 $33 $29 $57 $80 reversed $28 $32 #
-32 pcurve $-1 0 forward { exppc nubs 1 open 2
        -222.51386013436996 1 -175 1 
        222.51386013436996 2 
        175 2 
        0
        spline 0 { ref 10 } F 175 F 222.51386013436996 F 0 F 2 
        } 0 0 #
-33 coedge $-1 $35 $31 $20 $74 reversed $28 $34 #
-34 pcurve $-1 0 forward { exppc nubs 1 open 2
        -2 1 0 1 
        175 2 
        175 0 
        0
        spline 0 { ref 10 } F 175 F 222.51386013436996 F 0 F 2 
        } 0 0 #
-35 coedge $-1 $29 $33 $40 $78 forward $28 $36 #
-36 pcurve $-1 0 forward { exppc nubs 1 open 2
        175 1 222.51386013436996 1 
        175 0 
        222.51386013436996 0 
        0
        spline 0 { ref 10 } F 175 F 222.51386013436996 F 0 F 2 
        } 0 0 #
-37 face $-1 $48 $39 $3 $-1 $38 forward single #
-38 spline-surface $-1 forward { exactsur nubs 1 1 open open none none 2 2
        29.991246230924233 1 60 1 
        0 1 14 1 
        -7.0000000000096856 9.313211313255434e-12 -30.000000000000014 
        -7.0000000000096856 9.313211313255434e-12 0.0087537690757528708 
        6.9999999999903144 9.313211313255434e-12 -30.000000000000014 
        6.9999999999903144 9.313211313255434e-12 0.0087537690757528708 
        0
        0
        0
        0
        0
        0
        0
        F 29.991246230924233 F 60 F 0 F 14 } F 29.991246230924233 F 60 F 0 F 14 #
-39 loop $-1 $-1 $40 $37 #
-40 coedge $-1 $42 $46 $35 $78 reversed $39 $41 #
-41 pcurve $-1 0 forward { exppc nubs 1 open 2
        -222.51386013436996 1 -175 1 
        29.991246230924233 0 
        60 0 
        0
        spline 0 { ref 15 } F 29.991246230924233 F 60 F 0 F 14 
        } 0 0 #
-42 coedge $-1 $44 $40 $18 $72 reversed $39 $43 #
-43 pcurve $-1 0 forward { exppc nubs 1 open 2
        -175 1 -135 1 
        60 0 
        60 14 
        0
        spline 0 { ref 15 } F 29.991246230924233 F 60 F 0 F 14 
        } 0 0 #
-44 coedge $-1 $46 $42 $9 $90 reversed $39 $45 #
-45 pcurve $-1 0 forward { exppc nubs 1 open 2
        -135 1 -87.486139865630065 1 
        60 14 
        29.991246230924251 14 
        0
        spline 0 { ref 15 } F 29.991246230924233 F 60 F 0 F 14 
        } 0 0 #
-46 coedge $-1 $40 $44 $66 $86 reversed $39 $47 #
-47 pcurve $-1 0 forward { exppc nubs 1 open 2
        -14 1 -0 1 
        29.991246230924251 14 
        29.991246230924233 0 
        0
        spline 0 { ref 15 } F 29.991246230924233 F 60 F 0 F 14 
        } 0 0 #
-48 face $-1 $59 $50 $3 $-1 $49 forward single #
-49 spline-surface $-1 forward { exactsur nubs 1 1 open open none none 2 2
        0 1 14 1 
        29.991246230924233 1 60 1 
        -7.0000000000096856 -0.79999999999068683 -30.000000000000014 
        6.9999999999903144 -0.79999999999068683 -30.000000000000014 
        -7.0000000000096856 -0.79999999999068683 0.0087537690757528708 
        6.9999999999903144 -0.79999999999068683 0.0087537690757528708 
        0
        0
        0
        0
        0
        0
        0
        F 0 F 14 F 29.991246230924233 F 60 } F 0 F 14 F 29.991246230924233 F 60 #
-50 loop $-1 $-1 $51 $48 #
-51 coedge $-1 $53 $57 $62 $88 forward $50 $52 #
-52 pcurve $-1 0 forward { exppc nubs 1 open 2
        0 1 14 1 
        0 29.991246230924233 
        14 29.991246230924251 
        0
        spline 0 { ref 20 } F 0 F 14 F 29.991246230924233 F 60 
        } 0 0 #
-53 coedge $-1 $55 $51 $13 $92 forward $50 $54 #
-54 pcurve $-1 0 forward { exppc nubs 1 open 2
        87.486139865630065 1 135 1 
        14 29.991246230924251 
        14 60 
        0
        spline 0 { ref 20 } F 0 F 14 F 29.991246230924233 F 60 
        } 0 0 #
-55 coedge $-1 $57 $53 $22 $76 forward $50 $56 #
-56 pcurve $-1 0 forward { exppc nubs 1 open 2
        135 1 175 1 
        14 60 
        0 60 
        0
        spline 0 { ref 20 } F 0 F 14 F 29.991246230924233 F 60 
        } 0 0 #
-57 coedge $-1 $51 $55 $31 $80 forward $50 $58 #
-58 pcurve $-1 0 forward { exppc nubs 1 open 2
        175 1 222.51386013436996 1 
        0 60 
        0 29.991246230924233 
        0
        spline 0 { ref 20 } F 0 F 14 F 29.991246230924233 F 60 
        } 0 0 #
-59 face $-1 $-1 $61 $3 $-1 $60 forward single #
-60 spline-surface $-1 forward { exactsur nubs 1 1 open open none none 2 2
        45.200000000009311 1 46.000000000009315 1 
        82.999999999990322 1 96.999999999990308 1 
        -7.0000000000096776 -0.7999999999906926 -30 
        -7.0000000000096776 9.3116625521361129e-12 -30 
        6.9999999999903082 -0.7999999999906926 -30 
        6.9999999999903082 9.3116625521361129e-12 -30 
        0
        0
        0
        0
        0
        0
        0
        F 45.200000000009311 F 46.000000000009315 F 82.999999999990322 F 96.999999999990308 } F 45.200000000009311 F 46.000000000009315 F 82.999999999990322 F 96.999999999990308 #
-61 loop $-1 $-1 $62 $59 #
-62 coedge $-1 $64 $68 $51 $88 reversed $61 $63 #
-63 pcurve $-1 0 forward { exppc nubs 1 open 2
        -14 1 -0 1 
        45.200000000009311 96.999999999990308 
        45.200000000009311 82.999999999990322 
        0
        spline 0 { ref 25 } F 45.200000000009311 F 46.000000000009315 F 82.999999999990322 F 96.999999999990308 
        } 0 0 #
-64 coedge $-1 $66 $62 $29 $84 reversed $61 $65 #
-65 pcurve $-1 0 forward { exppc nubs 1 open 2
        45.200000000009311 1 46.000000000009315 1 
        45.200000000009311 82.999999999990322 
        46.000000000009315 82.999999999990322 
        0
        spline 0 { ref 25 } F 45.200000000009311 F 46.000000000009315 F 82.999999999990322 F 96.999999999990308 
        } 0 0 #
-66 coedge $-1 $68 $64 $46 $86 forward $61 $67 #
-67 pcurve $-1 0 forward { exppc nubs 1 open 2
        0 1 14 1 
        46.000000000009315 82.999999999990322 
        46.000000000009315 96.999999999990308 
        0
        spline 0 { ref 25 } F 45.200000000009311 F 46.000000000009315 F 82.999999999990322 F 96.999999999990308 
        } 0 0 #
-68 coedge $-1 $62 $66 $7 $82 reversed $61 $69 #
-69 pcurve $-1 0 forward { exppc nubs 1 open 2
        0 1 2 1 
        46.000000000009315 96.999999999990308 
        45.200000000009311 96.999999999990308 
        0
        spline 0 { ref 25 } F 45.200000000009311 F 46.000000000009315 F 82.999999999990322 F 96.999999999990308 
        } 0 0 #
-70 edge $-1 $94 $96 $11 $71 forward #
-71 intcurve-curve $-1 forward { exactcur nubs 1 open 2
        0 1 2 1 
        6.9999999999903144 9.313211313255434e-12 0.0087537690757528708 
        6.9999999999903144 -0.79999999999068683 0.0087537690757528708 
        0
        null_surface
        null_surface
        nullbs
        nullbs
        I I
        0
        0
        0
        F 0 F 2 } F 0 F 2 #
-72 edge $-1 $94 $98 $18 $73 forward #
-73 intcurve-curve $-1 forward { exactcur nubs 1 open 2
        135 1 175 1 
        6.9999999999903144 9.313211313255434e-12 0.0087537690757528708 
        -7.0000000000096856 9.313211313255434e-12 0.0087537690757528708 
        0
        null_surface
        null_surface
        nullbs
        nullbs
        I I
        0
        0
        0
        F 135 F 175 } F 135 F 175 #
-74 edge $-1 $98 $100 $20 $75 forward #
-75 intcurve-curve $-1 forward { exactcur nubs 1 open 2
        0 1 2 1 
        -7.0000000000096856 9.313211313255434e-12 0.0087537690757528708 
        -7.0000000000096856 -0.79999999999068683 0.0087537690757528708 
        0
        null_surface
        null_surface
        nullbs
        nullbs
        I I
        0
        0
        0
        F 0 F 2 } F 0 F 2 #
-76 edge $-1 $96 $100 $22 $77 forward #
-77 intcurve-curve $-1 forward { exactcur nubs 1 open 2
        135 1 175 1 
        6.9999999999903144 -0.79999999999068683 0.0087537690757528708 
        -7.0000000000096856 -0.79999999999068683 0.0087537690757528708 
        0
        null_surface
        null_surface
        nullbs
        nullbs
        I I
        0
        0
        0
        F 135 F 175 } F 135 F 175 #
-78 edge $-1 $98 $106 $35 $79 forward #
-79 intcurve-curve $-1 forward { exactcur nubs 1 open 2
        175 1 222.51386013436996 1 
        -7.0000000000096856 9.313211313255434e-12 0.0087537690757528708 
        -7.000000000009682 9.3151014679548738e-12 -30.000000000000007 
        0
        null_surface
        null_surface
        nullbs
        nullbs
        I I
        0
        0
        0
        F 175 F 222.51386013436996 } F 175 F 222.51386013436996 #
-80 edge $-1 $100 $108 $31 $81 forward #
-81 intcurve-curve $-1 forward { exactcur nubs 1 open 2
        175 1 222.51386013436996 1 
        -7.0000000000096856 -0.79999999999068683 0.0087537690757528708 
        -7.0000000000096829 -0.79999999999068794 -30.000000000000007 
        0
        null_surface
        null_surface
        nullbs
        nullbs
        I I
        0
        0
        0
        F 175 F 222.51386013436996 } F 175 F 222.51386013436996 #
-82 edge $-1 $102 $104 $7 $83 forward #
-83 intcurve-curve $-1 forward { exactcur nubs 1 open 2
        -2 1 -0 1 
        6.9999999999903117 -0.79999999999068971 -30 
        6.99999999999031 9.315989646374574e-12 -29.999999999999993 
        0
        null_surface
        null_surface
        nullbs
        nullbs
        I I
        0
        0
        0
        F -2 F -0 } F -2 F -0 #
-84 edge $-1 $106 $108 $29 $85 forward #
-85 intcurve-curve $-1 forward { exactcur nubs 1 open 2
        -46.000000000009315 1 -45.200000000009311 1 
        -7.000000000009682 9.3151014679548738e-12 -30.000000000000007 
        -7.0000000000096829 -0.79999999999068794 -30.000000000000007 
        0
        null_surface
        null_surface
        nullbs
        nullbs
        I I
        0
        0
        0
        F -46.000000000009315 F -45.200000000009311 } F -46.000000000009315 F -45.200000000009311 #
-86 edge $-1 $106 $104 $46 $87 forward #
-87 intcurve-curve $-1 forward { exactcur nubs 1 open 2
        0 1 14 1 
        -7.000000000009682 9.3151014679548738e-12 -30.000000000000007 
        6.99999999999031 9.315989646374574e-12 -29.999999999999993 
        0
        null_surface
        null_surface
        nullbs
        nullbs
        I I
        0
        0
        0
        F 0 F 14 } F 0 F 14 #
-88 edge $-1 $108 $102 $51 $89 forward #
-89 intcurve-curve $-1 forward { exactcur nubs 1 open 2
        0 1 14 1 
        -7.0000000000096829 -0.79999999999068794 -30.000000000000007 
        6.9999999999903117 -0.79999999999068971 -30 
        0
        null_surface
        null_surface
        nullbs
        nullbs
        I I
        0
        0
        0
        F 0 F 14 } F 0 F 14 #
-90 edge $-1 $104 $94 $9 $91 forward #
-91 intcurve-curve $-1 forward { exactcur nubs 1 open 2
        87.486139865630065 1 135 1 
        6.99999999999031 9.315989646374574e-12 -29.999999999999993 
        6.9999999999903144 9.313211313255434e-12 0.0087537690757528708 
        0
        null_surface
        null_surface
        nullbs
        nullbs
        I I
        0
        0
        0
        F 87.486139865630065 F 135 } F 87.486139865630065 F 135 #
-92 edge $-1 $102 $96 $13 $93 forward #
-93 intcurve-curve $-1 forward { exactcur nubs 1 open 2
        87.486139865630065 1 135 1 
        6.9999999999903117 -0.79999999999068971 -30 
        6.9999999999903144 -0.79999999999068683 0.0087537690757528708 
        0
        null_surface
        null_surface
        nullbs
        nullbs
        I I
        0
        0
        0
        F 87.486139865630065 F 135 } F 87.486139865630065 F 135 #
-94 vertex $-1 $70 $95 #
-95 point $-1 6.9999999999903144 9.313211313255434e-12 0.0087537690757528708 #
-96 vertex $-1 $70 $97 #
-97 point $-1 6.9999999999903144 -0.79999999999068683 0.0087537690757528708 #
-98 vertex $-1 $72 $99 #
-99 point $-1 -7.0000000000096856 9.313211313255434e-12 0.0087537690757528708 #
-100 vertex $-1 $74 $101 #
-101 point $-1 -7.0000000000096856 -0.79999999999068683 0.0087537690757528708 #
-102 vertex $-1 $82 $103 #
-103 point $-1 6.9999999999903117 -0.79999999999068971 -30 #
-104 vertex $-1 $82 $105 #
-105 point $-1 6.99999999999031 9.315989646374574e-12 -29.999999999999993 #
-106 vertex $-1 $84 $107 #
-107 point $-1 -7.000000000009682 9.3151014679548738e-12 -30.000000000000007 #
-108 vertex $-1 $84 $109 #
-109 point $-1 -7.0000000000096829 -0.79999999999068794 -30.000000000000007 #
End-of-ACIS-data
